<?xml version="1.0" encoding="UTF-8"?><svg xmlns="http://www.w3.org/2000/svg" width="921" height="921" style="font-family: Arial, sans-serif; width: 921px; height: 1009px;"><g class="path" style="cursor: move;"><path stroke="#4dac26" stroke-width="1.5" fill="none" d="M190.97,304.89L521.04,321.89"></path><path stroke="#4dac26" stroke-width="1.5" fill="white" class="arrowfront" d="M-1,0L15,5L15,-5Z" transform="translate(521.0396381638689,321.8877393309638) rotate(182.94799900554818)"></path></g><g class="path" style="cursor: move;"><path stroke="#4dac26" stroke-width="1.5" fill="none" d="M565.98,322.30L646.02,318.88"></path><path stroke="#4dac26" stroke-width="1.5" fill="white" class="arrowfront" d="M-1,0L15,5L15,-5Z" transform="translate(646.0247568198229,318.87863399752683) rotate(177.55455733065432)"></path></g><g class="path" style="cursor: move;"><path stroke="#4dac26" stroke-width="1.5" fill="none" d="M279.75,359.63L521.28,325.96"></path><path stroke="#4dac26" stroke-width="1.5" fill="white" class="arrowfront" d="M-1,0L15,5L15,-5Z" transform="translate(521.2831719273084,325.96181832156475) rotate(172.06366900936007)"></path></g><g class="path" style="cursor: move;"><path stroke="#4dac26" stroke-width="1.5" fill="none" d="M274.41,264.63L521.67,318.45"></path><path stroke="#4dac26" stroke-width="1.5" fill="white" class="arrowfront" d="M-1,0L15,5L15,-5Z" transform="translate(521.6747263119646,318.45151647675664) rotate(192.28002586945223)"></path></g><g class="path" style="cursor: move;"><path stroke="#4dac26" stroke-width="1.5" fill="none" d="M561.91,313.91L648.75,253.57"></path><path stroke="#4dac26" stroke-width="1.5" fill="white" class="arrowfront" d="M-1,0L15,5L15,-5Z" transform="translate(648.7519287126878,253.574632209117) rotate(145.21175375508412)"></path></g><g class="path" style="cursor: move;"><path stroke="#4dac26" stroke-width="1.5" fill="none" d="M277.97,355.41L523.33,250.31"></path><path stroke="#4dac26" stroke-width="1.5" fill="white" class="arrowfront" d="M-1,0L15,5L15,-5Z" transform="translate(523.331023001758,250.30586752365127) rotate(156.81017620043968)"></path></g><g class="path" style="cursor: move;"><path stroke="#4dac26" stroke-width="1.5" fill="none" d="M190.64,301.15L521.41,245.57"></path><path stroke="#4dac26" stroke-width="1.5" fill="white" class="arrowfront" d="M-1,0L15,5L15,-5Z" transform="translate(521.4130187809493,245.57064588194945) rotate(170.46213654709382)"></path></g><g class="path" style="cursor: move;"><path stroke="#4dac26" stroke-width="1.5" fill="none" d="M274.94,259.85L521.07,243.43"></path><path stroke="#4dac26" stroke-width="1.5" fill="white" class="arrowfront" d="M-1,0L15,5L15,-5Z" transform="translate(521.0656308173892,243.43166308410633) rotate(176.18242628884497)"></path></g><g class="path" style="cursor: move;"><path stroke="#4dac26" stroke-width="1.5" fill="none" d="M566.00,242.00L644.00,242.00"></path><path stroke="#4dac26" stroke-width="1.5" fill="white" class="arrowfront" d="M-1,0L15,5L15,-5Z" transform="translate(644.000000000001,241.99998366474406) rotate(179.99998800075363)"></path></g><g class="path" style="cursor: move;"><path stroke="#d01c8b" stroke-width="1.5" fill="none" d="M96.46,195.79L157.38,287.34"></path><path stroke="#d01c8b" stroke-width="1.5" fill="white" class="arrowfront" d="M-1,0L15,5L15,-5Z" transform="translate(157.3757269231517,287.34170435221) rotate(236.36149954998427)"></path></g><g class="path" style="cursor: move;"><path stroke="#d01c8b" stroke-width="1.5" fill="none" d="M105.31,186.91L646.79,313.10"></path><path stroke="#d01c8b" stroke-width="1.5" fill="white" class="arrowfront" d="M-1,0L15,5L15,-5Z" transform="translate(646.7858495993032,313.09768765469056) rotate(193.11836664536096)"></path></g><g class="path" style="cursor: move;"><path stroke="#d01c8b" stroke-width="1.5" fill="none" d="M105.86,184.77L644.16,239.79"></path><path stroke="#d01c8b" stroke-width="1.5" fill="white" class="arrowfront" d="M-1,0L15,5L15,-5Z" transform="translate(644.1571042659674,239.78974288879695) rotate(185.83630556564998)"></path></g><g class="path" style="cursor: move;"><path stroke="#4dac26" stroke-width="1.5" fill="none" d="M237.81,268.67L192.76,294.30"></path><path stroke="#4dac26" stroke-width="1.5" fill="white" class="arrowfront" d="M-1,0L15,5L15,-5Z" transform="translate(192.7599124548537,294.29642348184774) rotate(-29.63757256068039)"></path></g><g class="path" style="cursor: move;"><path stroke="#4dac26" stroke-width="1.5" fill="none" d="M255.87,275.99L258.84,342.02"></path><path stroke="#4dac26" stroke-width="1.5" fill="white" class="arrowfront" d="M-1,0L15,5L15,-5Z" transform="translate(258.84018189384335,342.02240111138605) rotate(267.42471010138286)"></path></g><g class="path" style="cursor: move;"><path stroke="#4dac26" stroke-width="1.5" fill="none" d="M276.41,370.58L407.16,452.11"></path><path stroke="#4dac26" stroke-width="1.5" fill="white" class="arrowfront" d="M-1,0L15,5L15,-5Z" transform="translate(407.1574860843261,452.108570369491) rotate(211.94745920715476)"></path></g><g class="path" style="cursor: move;"><path stroke="#d01c8b" stroke-width="1.5" fill="none" d="M439.84,450.91L530.66,338.66"></path><path stroke="#d01c8b" stroke-width="1.5" fill="white" class="arrowfront" d="M-1,0L15,5L15,-5Z" transform="translate(530.6622969084528,338.6629872432432) rotate(128.97761946857744)"></path></g><g class="path" style="cursor: move;"><path stroke="#d01c8b" stroke-width="1.5" fill="none" d="M436.47,449.41L534.88,259.84"></path><path stroke="#d01c8b" stroke-width="1.5" fill="white" class="arrowfront" d="M-1,0L15,5L15,-5Z" transform="translate(534.8849314295632,259.83552011470226) rotate(117.4355689502819)"></path></g><g class="path" style="cursor: move;"><path stroke="#d01c8b" stroke-width="1.5" fill="none" d="M128.36,395.78L403.73,458.26"></path><path stroke="#d01c8b" stroke-width="1.5" fill="white" class="arrowfront" d="M-1,0L15,5L15,-5Z" transform="translate(403.7334369010118,458.2608043733085) rotate(192.7834819752013)"></path></g><g class="path" style="cursor: move;"><path stroke="#d01c8b" stroke-width="1.5" fill="none" d="M122.91,381.22L237.14,274.84"></path><path stroke="#d01c8b" stroke-width="1.5" fill="white" class="arrowfront" d="M-1,0L15,5L15,-5Z" transform="translate(237.14248831578706,274.84428055087966) rotate(137.04088587962525)"></path></g><g class="path" style="cursor: move;"><path stroke="#d01c8b" stroke-width="1.5" fill="none" d="M119.48,379.22L157.35,320.64"></path><path stroke="#d01c8b" stroke-width="1.5" fill="white" class="arrowfront" d="M-1,0L15,5L15,-5Z" transform="translate(157.34813716118182,320.6436092183356) rotate(122.88000162709716)"></path></g><g class="path" style="cursor: move;"><path stroke="#d01c8b" stroke-width="1.5" fill="none" d="M198.97,467.17L175.03,323.73"></path><path stroke="#d01c8b" stroke-width="1.5" fill="white" class="arrowfront" d="M-1,0L15,5L15,-5Z" transform="translate(175.02686219258197,323.7282100191492) rotate(80.52245977951327)"></path></g><g class="path" style="cursor: move;"><path stroke="#d01c8b" stroke-width="1.5" fill="none" d="M209.80,468.18L249.74,380.17"></path><path stroke="#d01c8b" stroke-width="1.5" fill="white" class="arrowfront" d="M-1,0L15,5L15,-5Z" transform="translate(249.7420546979554,380.17049249260845) rotate(114.4095169649383)"></path></g><g class="path" style="cursor: move;"><path stroke="#d01c8b" stroke-width="1.5" fill="none" d="M206.12,467.32L249.52,280.49"></path><path stroke="#d01c8b" stroke-width="1.5" fill="white" class="arrowfront" d="M-1,0L15,5L15,-5Z" transform="translate(249.52361181866323,280.49430855315114) rotate(103.07786477942624)"></path></g><g class="path" style="cursor: move;"><path stroke="#d01c8b" stroke-width="1.5" fill="none" d="M221.90,480.53L403.11,464.84"></path><path stroke="#d01c8b" stroke-width="1.5" fill="white" class="arrowfront" d="M-1,0L15,5L15,-5Z" transform="translate(403.10870151283,464.8399808819997) rotate(175.05166532982167)"></path></g><g class="path" style="cursor: move;"><path stroke="#4dac26" stroke-width="1.5" fill="none" d="M267.89,249.53L397.37,111.79"></path><path stroke="#4dac26" stroke-width="1.5" fill="white" class="arrowfront" d="M-1,0L15,5L15,-5Z" transform="translate(397.3709861923611,111.79045324215664) rotate(133.22862057511136)"></path></g><g class="path" style="cursor: move;"><path stroke="#d01c8b" stroke-width="1.5" fill="none" d="M414.67,111.99L427.10,443.01"></path><path stroke="#d01c8b" stroke-width="1.5" fill="white" class="arrowfront" d="M-1,0L15,5L15,-5Z" transform="translate(427.10341633787704,443.0134461727904) rotate(267.84937594632436)"></path></g><g class="path" style="cursor: move;"><path stroke="#d01c8b" stroke-width="1.5" fill="none" d="M423.10,110.36L534.08,305.51"></path><path stroke="#d01c8b" stroke-width="1.5" fill="white" class="arrowfront" d="M-1,0L15,5L15,-5Z" transform="translate(534.0837250584002,305.5073647092458) rotate(240.37259186090515)"></path></g><g class="path" style="cursor: move;"><path stroke="#d01c8b" stroke-width="1.5" fill="none" d="M426.42,108.76L529.95,226.81"></path><path stroke="#d01c8b" stroke-width="1.5" fill="white" class="arrowfront" d="M-1,0L15,5L15,-5Z" transform="translate(529.9465701540346,226.80643273172208) rotate(228.75062742368763)"></path></g><g class="path" style="cursor: move;"><path stroke="#4dac26" stroke-width="1.5" fill="none" d="M187.26,312.74L407.34,451.89"></path><path stroke="#4dac26" stroke-width="1.5" fill="white" class="arrowfront" d="M-1,0L15,5L15,-5Z" transform="translate(407.33876846606984,451.8938681991087) rotate(212.30469669067986)"></path></g><g class="path" style="cursor: move;"><path stroke="#4dac26" stroke-width="1.5" fill="none" d="M185.27,293.49L395.71,110.48"></path><path stroke="#4dac26" stroke-width="1.5" fill="white" class="arrowfront" d="M-1,0L15,5L15,-5Z" transform="translate(395.7051877419838,110.47585980139152) rotate(138.98692267906063)"></path></g><g class="path" style="cursor: move;"><path stroke="#4dac26" stroke-width="1.5" fill="none" d="M186.97,313.03L239.68,350.50"></path><path stroke="#4dac26" stroke-width="1.5" fill="white" class="arrowfront" d="M-1,0L15,5L15,-5Z" transform="translate(239.68098952663104,350.5038934099185) rotate(215.40592891470186)"></path></g><g class="path" style="cursor: move;"><path stroke="#d01c8b" stroke-width="1.5" fill="none" d="M198.38,118.87L174.48,284.20"></path><path stroke="#d01c8b" stroke-width="1.5" fill="white" class="arrowfront" d="M-1,0L15,5L15,-5Z" transform="translate(174.48102884922005,284.20266311804477) rotate(-81.77302256645159)"></path></g><g class="path" style="cursor: move;"><path stroke="#d01c8b" stroke-width="1.5" fill="none" d="M206.78,118.36L247.35,242.00"></path><path stroke="#d01c8b" stroke-width="1.5" fill="white" class="arrowfront" d="M-1,0L15,5L15,-5Z" transform="translate(247.35239042612534,241.99774305811223) rotate(251.83230551650004)"></path></g><g class="path" style="cursor: move;"><path stroke="#d01c8b" stroke-width="1.5" fill="none" d="M101.66,173.67L181.05,115.89"></path><path stroke="#d01c8b" stroke-width="1.5" fill="white" class="arrowfront" d="M-1,0L15,5L15,-5Z" transform="translate(181.04560801840086,115.89151903240219) rotate(143.9532173023836)"></path></g><g class="path" style="cursor: move;"><path stroke="#d01c8b" stroke-width="1.5" fill="none" d="M114.40,377.55L193.85,123.13"></path><path stroke="#d01c8b" stroke-width="1.5" fill="white" class="arrowfront" d="M-1,0L15,5L15,-5Z" transform="translate(193.84752368635927,123.12982573176737) rotate(107.34144686360318)"></path></g><g class="path" style="cursor: move;"><path stroke="#d01c8b" stroke-width="1.5" fill="none" d="M201.95,467.00L201.06,124.00"></path><path stroke="#d01c8b" stroke-width="1.5" fill="white" class="arrowfront" d="M-1,0L15,5L15,-5Z" transform="translate(201.06205574262904,123.999850046583) rotate(89.85109559894723)"></path></g><g class="path" style="cursor: move;"><path stroke="#d01c8b" stroke-width="1.5" fill="none" d="M217.12,112.88L525.51,311.70"></path><path stroke="#d01c8b" stroke-width="1.5" fill="white" class="arrowfront" d="M-1,0L15,5L15,-5Z" transform="translate(525.5057726416268,311.70109724935367) rotate(212.80949133151753)"></path></g><g class="path" style="cursor: move;"><path stroke="#d01c8b" stroke-width="1.5" fill="none" d="M219.13,110.34L523.15,234.01"></path><path stroke="#d01c8b" stroke-width="1.5" fill="white" class="arrowfront" d="M-1,0L15,5L15,-5Z" transform="translate(523.1472118346477,234.01336546944344) rotate(202.1370136146408)"></path></g><g class="path" style="cursor: move;"><path stroke="#d01c8b" stroke-width="1.5" fill="none" d="M220.99,103.42L389.02,97.72"></path><path stroke="#d01c8b" stroke-width="1.5" fill="white" class="arrowfront" d="M-1,0L15,5L15,-5Z" transform="translate(389.01668048793516,97.72212968445004) rotate(178.05706735708605)"></path></g><g class="path" style="cursor: move;"><path stroke="#d01c8b" stroke-width="1.5" fill="none" d="M210.68,468.48L402.61,114.72"></path><path stroke="#d01c8b" stroke-width="1.5" fill="white" class="arrowfront" d="M-1,0L15,5L15,-5Z" transform="translate(402.612547536787,114.72231002885682) rotate(118.48135009929894)"></path></g><g class="path" style="cursor: move;"><path stroke="#d01c8b" stroke-width="1.5" fill="none" d="M394.87,101.40L110.00,177.48"></path><path stroke="#d01c8b" stroke-width="1.5" fill="white" class="arrowfront" d="M-1,0L15,5L15,-5Z" transform="translate(109.99995105424479,177.48325424285844) rotate(-14.95402682979597)"></path></g><g class="path" style="cursor: move;"><path stroke="#4dac26" stroke-width="1.5" fill="none" d="M247.09,350.54L102.65,197.77"></path><path stroke="#4dac26" stroke-width="1.5" fill="white" class="arrowfront" d="M-1,0L15,5L15,-5Z" transform="translate(102.65287192004755,197.77331394283775) rotate(46.60679305441348)"></path></g><g class="path" style="cursor: move;"><path stroke="#d01c8b" stroke-width="1.5" fill="none" d="M100.54,193.30L409.38,449.81"></path><path stroke="#d01c8b" stroke-width="1.5" fill="white" class="arrowfront" d="M-1,0L15,5L15,-5Z" transform="translate(409.3798991082073,449.8102772727886) rotate(219.71173734244906)"></path></g><g style="cursor: move; touch-action: none;" transform="translate(546,323.00000000000006)"><path fill-opacity="0.7" stroke-width="2" z-index="1" d="M 0 0 m 20, 0 a 20,15 0 1,1 -40,0 a 20,15 0 1,1 40,0" fill="#00a2e0" stroke="#000000"></path><rect class="textbg" fill="#ffffff" width="109.38888549804688" height="18.33333396911621" x="-54.6944465637207" y="20.333332061767578"></rect><text class="nodelabel" y="35" text-anchor="middle">HBV Screening</text><path d="M-2,-6L2,-6L2,6L-2,6Z" fill="#000000"></path></g><g style="cursor: move; touch-action: none;" transform="translate(671,318.00000000000006)"><path fill-opacity="0.7" stroke-width="2" z-index="1" d="M 0 0 m 20, 0 a 20,15 0 1,1 -40,0 a 20,15 0 1,1 40,0" fill="#00a2e0" stroke="#000000"></path><rect class="textbg" fill="#ffffff" width="118.87777709960938" height="18.33333396911621" x="-59.43888854980469" y="20.333332061767578"></rect><text class="nodelabel" y="35" text-anchor="middle">HBV Vaccination</text><path d="M-2,-6L2,-6L2,6L-2,6Z" fill="#000000"></path></g><g style="cursor: move; touch-action: none;" transform="translate(171,304.0000000000002)"><path fill-opacity="0.7" stroke-width="2" z-index="1" d="M 0 0 m 20, 0 a 20,15 0 1,1 -40,0 a 20,15 0 1,1 40,0" fill="#bed403" stroke="#000000"></path><rect class="textbg" fill="#ffffff" width="108.5111083984375" height="18.33333396911621" x="-54.255558013916016" y="20.333332061767578"></rect><text class="nodelabel" y="35" text-anchor="middle">Housing Status</text><path d="M-4,-6L7,0L-4,6Z" fill="#000000"></path></g><g style="cursor: move; touch-action: none;" transform="translate(260.00000000000006,361.99999999999983)"><path fill-opacity="0.7" stroke-width="2" z-index="1" d="M 0 0 m 20, 0 a 20,15 0 1,1 -40,0 a 20,15 0 1,1 40,0" fill="#bed403" stroke="#000000"></path><rect class="textbg" fill="#ffffff" width="43.122222900390625" height="18.33333396911621" x="-21.561111450195312" y="20.333332061767578"></rect><text class="nodelabel" y="35" text-anchor="middle">HCV+</text><path d="M-4,-6L7,0L-4,6Z" fill="#000000"></path></g><g style="cursor: move; touch-action: none;" transform="translate(255,261.00000000000017)"><path fill-opacity="0.7" stroke-width="2" z-index="1" d="M 0 0 m 20, 0 a 20,15 0 1,1 -40,0 a 20,15 0 1,1 40,0" fill="#bed403" stroke="#000000"></path><rect class="textbg" fill="#ffffff" width="38.22222137451172" height="18.33333396911621" x="-19.11111068725586" y="20.333332061767578"></rect><text class="nodelabel" y="35" text-anchor="middle">IVDU</text><path d="M-4,-6L7,0L-4,6Z" fill="#000000"></path></g><g style="cursor: move; touch-action: none;" transform="translate(546,241.99999999999991)"><path fill-opacity="0.7" stroke-width="2" z-index="1" d="M 0 0 m 20, 0 a 20,15 0 1,1 -40,0 a 20,15 0 1,1 40,0" fill="#00a2e0" stroke="#000000"></path><rect class="textbg" fill="#ffffff" width="108.21111297607422" height="18.33333396911621" x="-54.10555648803711" y="20.333332061767578"></rect><text class="nodelabel" y="35" text-anchor="middle">HAV Screening</text><path d="M-2,-6L2,-6L2,6L-2,6Z" fill="#000000"></path></g><g style="cursor: move; touch-action: none;" transform="translate(669,241.99999999999991)"><path fill-opacity="0.7" stroke-width="2" z-index="1" d="M 0 0 m 20, 0 a 20,15 0 1,1 -40,0 a 20,15 0 1,1 40,0" fill="#00a2e0" stroke="#000000"></path><rect class="textbg" fill="#ffffff" width="117.70000457763672" height="18.33333396911621" x="-58.85000228881836" y="20.333332061767578"></rect><text class="nodelabel" y="35" text-anchor="middle">HAV Vaccination</text><path d="M-2,-6L2,-6L2,6L-2,6Z" fill="#000000"></path></g><g style="cursor: move; touch-action: none;" transform="translate(85.99999999999997,182.99999999999983)"><path fill-opacity="0.7" stroke-width="2" z-index="1" d="M 0 0 m 20, 0 a 20,15 0 1,1 -40,0 a 20,15 0 1,1 40,0" fill="#ff7777" stroke="#ff7777"></path><rect class="textbg" fill="#ffffff" width="28.46666717529297" height="18.33333396911621" x="-14.233333587646484" y="20.333332061767578"></rect><text class="nodelabel" y="35" text-anchor="middle">Age</text></g><g style="cursor: move; touch-action: none;" transform="translate(109.00000000000004,392.0000000000001)"><path fill-opacity="0.7" stroke-width="2" z-index="1" d="M 0 0 m 20, 0 a 20,15 0 1,1 -40,0 a 20,15 0 1,1 40,0" fill="#ff7777" stroke="#ff7777"></path><rect class="textbg" fill="#ffffff" width="53.377777099609375" height="18.33333396911621" x="-26.688888549804688" y="20.333332061767578"></rect><text class="nodelabel" y="35" text-anchor="middle">Gender</text></g><g style="cursor: move; touch-action: none;" transform="translate(201.99999999999994,482.0000000000001)"><path fill-opacity="0.7" stroke-width="2" z-index="1" d="M 0 0 m 20, 0 a 20,15 0 1,1 -40,0 a 20,15 0 1,1 40,0" fill="#ff7777" stroke="#ff7777"></path><rect class="textbg" fill="#ffffff" width="102.26666259765625" height="18.33333396911621" x="-51.13333511352539" y="20.333332061767578"></rect><text class="nodelabel" y="35" text-anchor="middle">Race/Ethnicity</text></g><g style="cursor: move; touch-action: none;" transform="translate(428,463)"><path fill-opacity="0.7" stroke-width="2" z-index="1" d="M 0 0 m 20, 0 a 20,15 0 1,1 -40,0 a 20,15 0 1,1 40,0" fill="#00a2e0" stroke="#00a2e0"></path><rect class="textbg" fill="#ffffff" width="113.81110382080078" height="18.33333396911621" x="-56.905555725097656" y="20.333332061767578"></rect><text class="nodelabel" y="35" text-anchor="middle">cirrhosis (FIB-4)</text></g><g style="cursor: move; touch-action: none;" transform="translate(414,97)"><path fill-opacity="0.7" stroke-width="2" z-index="1" d="M 0 0 m 20, 0 a 20,15 0 1,1 -40,0 a 20,15 0 1,1 40,0" fill="#ff7777" stroke="#ff7777"></path><rect class="textbg" fill="#ffffff" width="36.011112213134766" height="18.33333396911621" x="-18.005556106567383" y="20.333332061767578"></rect><text class="nodelabel" y="35" text-anchor="middle">HIV+</text></g><g style="cursor: move; touch-action: none;" transform="translate(201,103.99999999999986)"><path fill-opacity="0.7" stroke-width="2" z-index="1" d="M 0 0 m 20, 0 a 20,15 0 1,1 -40,0 a 20,15 0 1,1 40,0" fill="#ff7777" stroke="#ff7777"></path><rect class="textbg" fill="#ffffff" width="32" height="18.33333396911621" x="-16" y="20.333332061767578"></rect><text class="nodelabel" y="35" text-anchor="middle">SES</text></g></svg>